<?xml version="1.0" encoding="utf-8"?>
<!-- Generator: Adobe Illustrator 16.0.0, SVG Export Plug-In . SVG Version: 6.00 Build 0)  -->
<!DOCTYPE svg PUBLIC "-//W3C//DTD SVG 1.1//EN" "http://www.w3.org/Graphics/SVG/1.1/DTD/svg11.dtd">
<svg version="1.1" id="Layer_1" xmlns="http://www.w3.org/2000/svg" xmlns:xlink="http://www.w3.org/1999/xlink" x="0px" y="0px"
	 width="3309.494px" height="608px" viewBox="0 0 3309.494 608" enable-background="new 0 0 3309.494 608" xml:space="preserve">
<g id="Layer_1_1_">
</g>
<g id="Layer_2">
	<g>
		<g>
			<path fill="#259AD6" d="M85.598,128.964h79.677l60.96,374.319h-58.821l-10.694-74.323v1.065H89.876l-10.694,73.258H24.638
				L85.598,128.964z M149.768,379.225l-26.204-185.021h-1.068L96.827,379.225H149.768z"/>
			<path fill="#259AD6" d="M264.734,484.302c-14.623-16.218-21.924-39.479-21.924-69.785v-21.389h55.613v25.668
				c0,24.247,10.16,36.362,30.479,36.362c9.976,0,17.556-2.94,22.727-8.824c5.165-5.881,7.754-15.418,7.754-28.606
				c0-15.684-3.568-29.496-10.696-41.441c-7.135-11.938-20.318-26.288-39.569-43.047c-24.248-21.391-41.176-40.726-50.801-58.021
				c-9.625-17.286-14.438-36.806-14.438-58.554c0-29.587,7.486-52.49,22.458-68.715c14.973-16.218,36.714-24.33,65.239-24.33
				c28.156,0,49.463,8.112,63.9,24.33c14.438,16.225,21.657,39.486,21.657,69.784v15.507h-55.613v-19.251
				c0-12.834-2.498-22.192-7.484-28.074c-4.998-5.881-12.3-8.823-21.926-8.823c-19.609,0-29.41,11.949-29.41,35.829
				c0,13.552,3.65,26.201,10.962,37.967c7.302,11.764,20.587,26.025,39.839,42.778c24.597,21.391,41.525,40.825,50.799,58.288
				c9.267,17.471,13.903,37.966,13.903,61.494c0,30.664-7.578,54.195-22.727,70.588c-15.157,16.4-37.165,24.599-66.041,24.599
				C300.912,508.634,279.347,500.527,264.734,484.302z"/>
			<path fill="#259AD6" d="M497.879,182.439h-61.496v-53.476h181.812v53.476h-61.495v320.844h-58.82V182.439z"/>
			<path fill="#259AD6" d="M646.535,128.964h87.163c30.297,0,52.405,7.044,66.31,21.123c13.902,14.086,20.854,35.744,20.854,64.972
				v22.994c0,38.859-12.834,63.458-38.501,73.795v1.067c14.254,4.278,24.331,13.02,30.213,26.203
				c5.883,13.192,8.824,30.841,8.824,52.938v65.772c0,10.697,0.352,19.345,1.07,25.938c0.709,6.602,2.49,13.1,5.346,19.518h-59.891
				c-2.139-6.057-3.568-11.764-4.278-17.108c-0.719-5.351-1.069-14.976-1.069-28.877v-68.445c0-17.113-2.765-29.053-8.288-35.83
				c-5.53-6.766-15.064-10.158-28.608-10.158h-20.321v160.42h-58.82V128.964H646.535z M726.745,289.388
				c11.765,0,20.589-3.026,26.471-9.092c5.882-6.058,8.822-16.217,8.822-30.479v-28.876c0-13.544-2.405-23.344-7.218-29.412
				c-4.813-6.057-12.391-9.09-22.727-9.09h-26.738v106.949H726.745z"/>
			<path fill="#259AD6" d="M880.752,484.035c-15.332-16.393-22.994-39.571-22.994-69.518V217.732
				c0-29.946,7.661-53.116,22.994-69.518c15.323-16.394,37.431-24.597,66.308-24.597c28.875,0,50.976,8.204,66.308,24.597
				c15.323,16.401,22.994,39.571,22.994,69.518v196.783c0,29.947-7.671,53.127-22.994,69.518
				c-15.332,16.402-37.433,24.599-66.308,24.599C918.183,508.634,896.075,500.436,880.752,484.035z M977.539,418.262V213.989
				c0-24.598-10.159-36.897-30.479-36.897c-20.32,0-30.48,12.3-30.48,36.897v204.273c0,24.598,10.16,36.896,30.48,36.896
				C967.38,455.158,977.539,442.859,977.539,418.262z"/>
			<path fill="#259AD6" d="M1173.245,484.302c-14.622-16.218-21.924-39.479-21.924-69.785v-21.389h55.613v25.668
				c0,24.247,10.16,36.362,30.479,36.362c9.976,0,17.555-2.94,22.726-8.824c5.166-5.881,7.755-15.418,7.755-28.606
				c0-15.684-3.567-29.496-10.695-41.441c-7.136-11.938-20.319-26.288-39.569-43.047c-24.249-21.391-41.175-40.726-50.802-58.021
				c-9.625-17.286-14.438-36.806-14.438-58.554c0-29.587,7.486-52.49,22.459-68.715c14.972-16.218,36.713-24.33,65.239-24.33
				c28.157,0,49.463,8.112,63.9,24.33c14.438,16.225,21.657,39.486,21.657,69.784v15.507h-55.613v-19.251
				c0-12.834-2.499-22.192-7.486-28.074c-4.997-5.881-12.299-8.823-21.924-8.823c-19.61,0-29.411,11.949-29.411,35.829
				c0,13.552,3.652,26.201,10.962,37.967c7.303,11.764,20.589,26.025,39.838,42.778c24.6,21.391,41.525,40.825,50.801,58.288
				c9.266,17.471,13.903,37.966,13.903,61.494c0,30.664-7.578,54.195-22.728,70.588c-15.156,16.4-37.165,24.599-66.041,24.599
				C1209.425,508.634,1187.859,500.527,1173.245,484.302z"/>
			<path fill="#259AD6" d="M1360.403,128.964h86.628c29.228,0,51.152,7.847,65.773,23.529
				c14.614,15.692,21.924,38.686,21.924,68.982v36.896c0,30.307-7.311,53.301-21.924,68.981
				c-14.622,15.693-36.546,23.529-65.773,23.529h-27.807v152.399h-58.821V128.964z M1447.031,297.409
				c9.625,0,16.845-2.674,21.657-8.021c4.813-5.349,7.22-14.439,7.22-27.272v-44.383c0-12.834-2.407-21.925-7.22-27.272
				c-4.813-5.347-12.031-8.021-21.657-8.021h-27.807v114.969H1447.031z"/>
			<path fill="#259AD6" d="M1593.551,128.964h79.675l60.962,374.319h-58.824l-10.693-74.323v1.065h-66.844l-10.693,73.258h-54.544
				L1593.551,128.964z M1657.719,379.225l-26.203-185.021h-1.069l-25.669,185.021H1657.719z"/>
			<path fill="#259AD6" d="M1933.625,128.964h160.424v53.476h-101.603v98.927h80.747v53.475h-80.747v114.971h101.603v53.473
				h-160.423L1933.625,128.964L1933.625,128.964z"/>
			<path fill="#259AD6" d="M2231.735,484.57c-14.798-16.045-22.19-38.678-22.19-67.914V215.594c0-29.227,7.394-51.871,22.19-67.912
				c14.789-16.042,36.271-24.063,64.438-24.063c28.158,0,49.639,8.021,64.438,24.063c14.79,16.042,22.192,38.685,22.192,67.912
				v39.57h-55.613V211.85c0-23.169-9.812-34.759-29.411-34.759c-19.608,0-29.408,11.591-29.408,34.759v209.085
				c0,22.816,9.8,34.223,29.408,34.223c19.604,0,29.411-11.405,29.411-34.223v-57.218h55.613v52.938
				c0,29.236-7.402,51.871-22.192,67.914c-14.799,16.041-36.277,24.063-64.438,24.063
				C2268.004,508.634,2246.524,500.609,2231.735,484.57z"/>
			<path fill="#259AD6" d="M2463.543,128.964h79.679l60.959,374.319h-58.822l-10.696-74.323v1.065h-66.841l-10.696,73.258h-54.543
				L2463.543,128.964z M2527.711,379.225l-26.201-185.021h-1.07l-25.668,185.021H2527.711z"/>
			<path fill="#259AD6" d="M2632.514,128.964h83.954l37.433,267.909h1.068l37.431-267.909h83.956v374.319h-55.613V219.871h-1.068
				l-42.778,283.413h-49.198l-42.777-283.413h-1.069v283.413h-51.335v-374.32H2632.514z"/>
			<path fill="#259AD6" d="M2920.202,128.964h86.628c29.229,0,51.151,7.847,65.774,23.529
				c14.612,15.692,21.924,38.686,21.924,68.982v36.896c0,30.307-7.312,53.301-21.924,68.981
				c-14.623,15.693-36.545,23.529-65.774,23.529h-27.806v152.399h-58.822V128.964z M3006.83,297.409
				c9.627,0,16.845-2.674,21.658-8.021c4.813-5.349,7.219-14.439,7.219-27.272v-44.383c0-12.834-2.404-21.925-7.219-27.272
				c-4.813-5.347-12.031-8.021-21.658-8.021h-27.806v114.969H3006.83z"/>
		</g>
		<polygon fill="#FDC134" points="1770,83.652 1761.367,101.146 1742.047,103.959 1756.025,117.57 1752.719,136.818 1770,127.72 
			1787.272,136.818 1783.973,117.57 1797.955,103.959 1778.638,101.146 		"/>
		<polygon fill="#FDC134" points="1766.756,36.609 1760.923,48.431 1747.88,50.327 1757.316,59.523 1755.089,72.511 
			1766.756,66.382 1778.406,72.511 1776.192,59.523 1785.625,50.327 1772.589,48.431 		"/>
		<polygon fill="#FDC134" points="1816.112,30.486 1807.465,47.982 1788.155,50.789 1802.132,64.403 1798.83,83.652 
			1816.112,74.572 1833.384,83.652 1830.084,64.403 1844.062,50.789 1824.74,47.982 		"/>
		<path fill="#FDC134" d="M1988.716,32.629C1884.793,79.712,1812.36,184.112,1812.36,305.64c0,121.51,72.437,225.902,176.356,272.99
			c-129.985-23.088-228.767-136.379-228.767-272.99C1759.949,169.022,1858.731,55.721,1988.716,32.629z"/>
	</g>
</g>
<text transform="matrix(1 0 0 1 420.9451 297.6399)" font-family="'MyriadPro-Regular'" font-size="12">™ </text>
<g>
	<path fill="#259AD6" d="M3124.784,167.385V53.333h-25.523v-24.21h78.466v24.21h-24.356v114.052H3124.784z M3190.998,167.385V29.122
		h28.44l26.106,88.966l27.856-88.966h27.273v138.262h-23.189V87.461l-24.794,79.924h-12.688l-25.815-80.07v80.07H3190.998z"/>
</g>
</svg>
